<svg width="89" height="58" viewBox="0 0 89 58" fill="none" xmlns="http://www.w3.org/2000/svg">
<path fill-rule="evenodd" clip-rule="evenodd" d="M89 58H82.598C80.1224 58 78.0101 57.1836 76.26 55.5508C74.5099 53.9189 73.6358 51.9473 73.6358 49.6386C73.6358 47.3289 74.5099 45.3573 76.26 43.7255C78.0101 42.0926 80.1225 41.2763 82.598 41.2763H89V45.0993H82.598C81.2495 45.0993 80.1008 45.541 79.1539 46.4253C78.206 47.3087 77.7326 48.3796 77.7326 49.6386C77.7326 50.8967 78.2069 51.9675 79.1539 52.8509C80.1008 53.7353 81.2496 54.177 82.598 54.177H89V58ZM16.6439 46.4133C16.6439 47.8303 16.1064 49.0407 15.0305 50.0444C13.9556 51.0473 12.6583 51.5496 11.1386 51.5496H4.60961L6.40203 47.7266H11.1386C11.5314 47.7266 11.8641 47.5998 12.1377 47.3446C12.4103 47.0893 12.5472 46.7797 12.5472 46.4133C12.5472 46.0469 12.4103 45.7357 12.1377 45.4812C11.8641 45.2259 11.5314 45.0992 11.1386 45.0992H4.09677V57.9999H0V41.2761H11.1386C12.6583 41.2761 13.9556 41.7784 15.0305 42.7812C16.1064 43.785 16.6439 44.9954 16.6439 46.4133V46.4133ZM34.6331 58H30.0885L28.8483 55.5737H22.9335L24.662 51.7508H27.0668L25.0301 47.4484L20.0239 58H15.4882L23.3656 41.2762H26.6947L34.6331 58ZM47.4106 45.0993V58H43.3139V41.2762H58.6781V58H54.5804V45.0993H47.4107H47.4106ZM72.8237 45.0993H64.8399V58H60.7422V41.2762H75.7619C75.4931 41.4782 75.2323 41.6968 74.9793 41.9337C73.9694 42.8759 73.2509 43.9311 72.8237 45.0993Z" fill="#424242"/>
<path fill-rule="evenodd" clip-rule="evenodd" d="M8.54773 24.5827C8.54773 21.5522 8.97296 20.6293 11.6415 19.0461C22.3863 12.6719 32.5523 6.45028 43.1978 0.245033C43.745 -0.0737155 44.1565 -0.118677 44.9153 0.334035C46.0611 1.01549 47.1094 1.60777 48.2551 2.28923C48.8487 2.6418 48.7128 3.04034 48.4727 3.24982C47.9381 3.71451 41.9219 7.23079 40.8708 7.86811L16.8357 22.2253C13.8995 23.973 13.6397 23.8939 13.6397 27.2423C13.6397 30.056 13.6347 32.8615 13.6347 35.6725C13.6347 36.0444 13.3089 36.3493 12.9103 36.3493H9.28404C8.88533 36.3493 8.55954 36.0444 8.55954 35.6725C8.55954 31.9808 8.54773 28.2863 8.54773 24.5827Z" fill="#17138F"/>
<path fill-rule="evenodd" clip-rule="evenodd" d="M43.6554 36.1583V12.7114C43.6554 9.90678 43.9075 8.15186 40.4367 10.2549L18.2689 23.4964C15.5611 25.109 15.3209 25.0355 15.3209 28.1238C15.3209 30.6713 15.3169 33.6128 15.3169 36.1583H43.6554Z" fill="#E42624"/>
<path fill-rule="evenodd" clip-rule="evenodd" d="M45.3819 36.1583V12.7114C45.3819 9.90678 45.1299 8.15186 48.6007 10.2549L70.7684 23.4964C73.4763 25.109 73.7165 25.0355 73.7165 28.1238C73.7165 30.6713 73.7206 33.6128 73.7206 36.1583H45.3819Z" fill="#17138F"/>
<path fill-rule="evenodd" clip-rule="evenodd" d="M80.4521 24.5827C80.4521 21.5522 80.0259 20.6283 77.3574 19.0461C66.6137 12.6719 65.5634 11.805 54.919 5.59986C54.3717 5.28111 53.9602 5.23707 53.2014 5.68886C52.0567 6.37032 51.2603 7.10862 50.1156 7.78907C49.522 8.14164 49.6579 8.54119 49.8981 8.74967C50.4315 9.21435 56.4477 12.7316 57.499 13.368L72.1643 22.2253C75.0996 23.9728 75.3604 23.8938 75.3604 27.2422C75.3604 30.0559 75.3645 32.8614 75.3645 35.6724C75.3645 36.0443 75.6914 36.3492 76.09 36.3492H79.7162C80.1149 36.3492 80.4407 36.0443 80.4407 35.6724C80.4407 31.9807 80.4525 28.2862 80.4525 24.5826L80.4521 24.5827Z" fill="#17138F"/>
</svg>
