<svg xmlns="http://www.w3.org/2000/svg">
	<symbol id="worker" viewBox="0 0 32 32" fill="none">
		<g>
			<g clip-path="url(#clip0_5_107)">
			<path d="M9.1988 11.0875H10.5032H20.5278V12.5756C20.5278 14.8921 18.6432 16.7766 16.3268 16.7766H16.227C14.2752 16.7766 12.5951 15.4531 12.1414 13.5581C12.0461 13.1607 11.6466 12.9157 11.2492 13.0108C10.8517 13.106 10.6066 13.5053 10.7018 13.9029C11.3157 16.4666 13.5878 18.2569 16.227 18.2569H16.3268C19.4595 18.2569 22.0081 15.7083 22.0081 12.5757V11.0876H22.0506H23.355C23.7637 11.0876 24.0951 10.7562 24.0951 10.3475C24.0951 9.93873 23.7637 9.60736 23.355 9.60736H22.7907V7.74091C22.7907 5.28722 21.4145 3.1492 19.3937 2.0571V0.740106C19.3937 0.33137 19.0623 0 18.6536 0C18.2449 0 17.9135 0.33137 17.9135 0.740106V1.4809C17.408 1.35331 16.8792 1.28482 16.3346 1.28482H16.2192C15.6746 1.28482 15.1458 1.35331 14.6403 1.4809V0.740106C14.6403 0.33137 14.3089 0 13.9002 0C13.4914 0 13.16 0.33137 13.16 0.740106V2.0571C11.1392 3.1491 9.76306 5.28712 9.76306 7.74091V9.60726H9.1988C8.79006 9.60726 8.45869 9.93863 8.45869 10.3474C8.45869 10.7561 8.79006 11.0875 9.1988 11.0875ZM11.2433 7.74091C11.2433 6.15008 11.9946 4.73224 13.16 3.82072V4.11065C13.16 4.51938 13.4914 4.85075 13.9002 4.85075C14.3089 4.85075 14.6403 4.51938 14.6403 4.11065V3.02318C15.1367 2.85661 15.6672 2.76494 16.2192 2.76494H16.3346C16.8864 2.76494 17.417 2.85661 17.9135 3.02318V4.11065C17.9135 4.51938 18.2449 4.85075 18.6536 4.85075C19.0623 4.85075 19.3937 4.51938 19.3937 4.11065V3.82072C20.5592 4.73224 21.3105 6.14998 21.3105 7.74091V9.60726H11.2433V7.74091Z" fill="#17138F"/>
			<path d="M23.618 19.4996H23.355H8.645H8.38192C5.22384 19.4996 2.65449 22.0689 2.65449 25.227V31.2599C2.65449 31.6687 2.98586 32.0001 3.3946 32.0001H8.645H23.355H28.6054C29.0141 32.0001 29.3455 31.6687 29.3455 31.2599V25.227C29.3455 22.0689 26.7761 19.4996 23.618 19.4996ZM4.1347 25.227C4.1347 22.8851 6.04003 20.9798 8.38192 20.9798H8.645H10.6818V26.3975C10.6818 26.8062 11.0131 27.1376 11.4219 27.1376H20.5782C20.9869 27.1376 21.3183 26.8062 21.3183 26.3975V22.8747C21.3183 22.4659 20.9869 22.1345 20.5782 22.1345C20.1694 22.1345 19.8381 22.4659 19.8381 22.8747V25.6574H12.162V20.9798H22.6149V30.5197H9.38511V24.4536C9.38511 24.0449 9.05374 23.7135 8.645 23.7135C8.23627 23.7135 7.9049 24.0449 7.9049 24.4536V30.5197H4.1347V25.227ZM27.8653 30.5197H24.0951V21.0063C26.2132 21.2441 27.8653 23.0463 27.8653 25.2269V30.5197Z" fill="#17138F"/>
			<path d="M11.4219 29.4H20.5782C20.9869 29.4 21.3183 29.0686 21.3183 28.6599C21.3183 28.2512 20.9869 27.9198 20.5782 27.9198H11.4219C11.0131 27.9198 10.6818 28.2512 10.6818 28.6599C10.6818 29.0686 11.0131 29.4 11.4219 29.4Z" fill="#17138F"/>
			</g>
			<defs>
			<clipPath id="clip0_5_107">
			<rect width="32" height="32" fill="white"/>
			</clipPath>
			</defs>
		</g>
	</symbol>
	<symbol id="phone" viewBox="0 0 20 20">
		<g>
			<path d="M5.51667 8.99167C6.71667 11.35 8.65 13.2833 11.0083 14.4833L12.8417 12.65C13.075 12.4167 13.4 12.35 13.6917 12.4417C14.625 12.75 15.625 12.9167 16.6667 12.9167C16.8877 12.9167 17.0996 13.0045 17.2559 13.1607C17.4122 13.317 17.5 13.529 17.5 13.75V16.6667C17.5 16.8877 17.4122 17.0996 17.2559 17.2559C17.0996 17.4122 16.8877 17.5 16.6667 17.5C12.9094 17.5 9.30609 16.0074 6.64932 13.3507C3.99256 10.6939 2.5 7.09057 2.5 3.33333C2.5 3.11232 2.5878 2.90036 2.74408 2.74408C2.90036 2.5878 3.11232 2.5 3.33333 2.5H6.25C6.47101 2.5 6.68298 2.5878 6.83926 2.74408C6.99554 2.90036 7.08333 3.11232 7.08333 3.33333C7.08333 4.375 7.25 5.375 7.55833 6.30833C7.65 6.6 7.58333 6.925 7.35 7.15833L5.51667 8.99167Z" fill="currentColor"/>
		</g>
	</symbol>
	<symbol id="tractor" viewBox="0 0 32 32">
		<g>
			<path d="M4 0V7.25C2.652 7.555 1.418 8.133 0.375 8.969L1.625 10.531C2.86546 9.53558 4.40954 8.99524 6 9C9.879 9 13 12.121 13 16H17.563C17.1993 16.6041 17.0048 17.2949 17 18C17 20.2 18.8 22 21 22C23.2 22 25 20.2 25 18C25 16.973 24.582 16.055 23.937 15.344L25.937 10.375L26 10.187V8H21V5C21 4.434 21.434 4 22 4V2C20.355 2 19 3.355 19 5V8H15.687L12.937 0.656L12.687 0H4ZM6 2H11.313L14.063 9.344L14.313 10H23.906L22.313 14H14.75C13.832 10.004 10.27 7 6 7V2ZM6 10C2.7 10 0 12.7 0 16C0 19.3 2.7 22 6 22C9.3 22 12 19.3 12 16C12 12.7 9.3 10 6 10ZM6 12C8.223 12 10 13.777 10 16C10 18.223 8.223 20 6 20C3.777 20 2 18.223 2 16C2 13.777 3.777 12 6 12ZM6 14C5.46957 14 4.96086 14.2107 4.58579 14.5858C4.21071 14.9609 4 15.4696 4 16C4 16.5304 4.21071 17.0391 4.58579 17.4142C4.96086 17.7893 5.46957 18 6 18C6.53043 18 7.03914 17.7893 7.41421 17.4142C7.78929 17.0391 8 16.5304 8 16C8 15.4696 7.78929 14.9609 7.41421 14.5858C7.03914 14.2107 6.53043 14 6 14ZM21 16C22.117 16 23 16.883 23 18C23 19.117 22.117 20 21 20C19.883 20 19 19.117 19 18C19 16.883 19.883 16 21 16Z" fill="#17138F"/>
		</g>
	</symbol>
	<symbol id="email" viewBox="0 0 20 20">
		<g>
			<path d="M1.574 5.286L9.074 9.315C9.326 9.45 9.652 9.514 9.98 9.514C10.308 9.514 10.634 9.45 10.886 9.315L18.386 5.286C18.875 5.023 19.337 4 18.44 4H1.521C0.624002 4 1.086 5.023 1.574 5.286ZM18.613 7.489L10.886 11.516C10.546 11.694 10.308 11.715 9.98 11.715C9.652 11.715 9.414 11.694 9.074 11.516C8.734 11.338 1.941 7.777 1.386 7.488C0.996002 7.284 1 7.523 1 7.707V15C1 15.42 1.566 16 2 16H18C18.434 16 19 15.42 19 15V7.708C19 7.524 19.004 7.285 18.613 7.489Z" fill="currentColor"/>
		</g>
	</symbol>
	<symbol id="burger" viewBox="0 0 32 16">
		<g>
			<line y1="1" x2="32" y2="1" stroke="white" stroke-width="2"/>
			<line y1="8" x2="32" y2="8" stroke="white" stroke-width="2"/>
			<line y1="15" x2="32" y2="15" stroke="white" stroke-width="2"/>
		</g>
	</symbol>
	<symbol id="tool-kit" viewBox="0 0 32 32" fill="none">
		<g>
			<path d="M8.914 24.5L13.171 20.243L11.757 18.829L7.5 23.086L6.707 22.293C6.51947 22.1055 6.26516 22.0002 6 22.0002C5.73484 22.0002 5.48053 22.1055 5.293 22.293L1.293 26.293C1.10553 26.4805 1.00021 26.7348 1.00021 27C1.00021 27.2651 1.10553 27.5195 1.293 27.707L4.293 30.707C4.48053 30.8945 4.73484 30.9998 5 30.9998C5.26516 30.9998 5.51947 30.8945 5.707 30.707L9.707 26.707C9.89447 26.5195 9.99979 26.2651 9.99979 26C9.99979 25.7348 9.89447 25.4805 9.707 25.293L8.914 24.5ZM5 28.586L3.414 27L6 24.414L7.586 26L5 28.586Z" fill="#17138F"/>
			<path d="M24 30C22.4093 29.9981 20.8842 29.3654 19.7594 28.2406C18.6346 27.1158 18.0019 25.5907 18 24C18.0004 23.4772 18.0711 22.9569 18.21 22.453L9.548 13.79C9.04371 13.9289 8.52307 13.9995 8 14C7.02243 14.0039 6.05883 13.7679 5.19367 13.3128C4.32852 12.8576 3.58824 12.1971 3.03774 11.3893C2.48724 10.5815 2.14332 9.6509 2.03614 8.67921C1.92896 7.70753 2.0618 6.72438 2.423 5.81598L2.981 4.39498L6.293 7.70698C6.48332 7.88872 6.73635 7.99013 6.9995 7.99013C7.26265 7.99013 7.51568 7.88872 7.706 7.70698C7.79895 7.61419 7.87268 7.50399 7.92299 7.38267C7.9733 7.26136 7.9992 7.13131 7.9992 6.99998C7.9992 6.86865 7.9733 6.7386 7.92299 6.61729C7.87268 6.49597 7.79895 6.38577 7.706 6.29298L4.395 2.97898L5.818 2.42198C6.72639 2.06142 7.70933 1.92912 8.68073 2.03666C9.65212 2.1442 10.5823 2.48831 11.3898 3.03883C12.1974 3.58935 12.8576 4.32949 13.3126 5.19442C13.7677 6.05934 14.0037 7.02266 14 7.99998C13.9996 8.52272 13.9289 9.04304 13.79 9.54698L22.453 18.21C22.957 18.0712 23.4773 18.0006 24 18C24.9776 17.9961 25.9412 18.232 26.8063 18.6872C27.6715 19.1424 28.4118 19.8028 28.9623 20.6107C29.5128 21.4185 29.8567 22.3491 29.9639 23.3208C30.071 24.2924 29.9382 25.2756 29.577 26.184L29.02 27.605L25.707 24.293C25.5167 24.1112 25.2637 24.0098 25.0005 24.0098C24.7373 24.0098 24.4843 24.1112 24.294 24.293C24.201 24.3857 24.1272 24.4959 24.0768 24.6171C24.0264 24.7384 24.0004 24.8684 24.0003 24.9998C24.0002 25.1311 24.026 25.2612 24.0762 25.3825C24.1265 25.5039 24.2001 25.6141 24.293 25.707L27.606 29.02L26.184 29.578C25.4889 29.8545 24.748 29.9976 24 30ZM10.062 11.476L20.523 21.937L20.284 22.547C20.0498 23.1325 19.9582 23.7653 20.0169 24.3931C20.0756 25.021 20.2828 25.6259 20.6214 26.1579C20.96 26.6898 21.4203 27.1336 21.9643 27.4525C22.5083 27.7714 23.1204 27.9563 23.75 27.992L22.879 27.122C22.6004 26.8434 22.3793 26.5127 22.2286 26.1486C22.0778 25.7846 22.0001 25.3945 22.0001 25.0005C22.0001 24.6065 22.0778 24.2163 22.2286 23.8523C22.3793 23.4883 22.6004 23.1576 22.879 22.879C23.4505 22.3333 24.2103 22.0288 25.0005 22.0288C25.7907 22.0288 26.5505 22.3333 27.122 22.879L27.992 23.75C27.9562 23.1204 27.7711 22.5083 27.4521 21.9643C27.1331 21.4203 26.6892 20.96 26.1572 20.6214C25.6252 20.2828 25.0202 20.0756 24.3923 20.0169C23.7644 19.9583 23.1316 20.0498 22.546 20.284L21.937 20.523L11.477 10.063L11.717 9.45298C11.9512 8.86742 12.0428 8.23453 11.984 7.60659C11.9253 6.97866 11.718 6.37371 11.3793 5.84173C11.0406 5.30974 10.5801 4.86599 10.036 4.54713C9.49186 4.22828 8.87967 4.04347 8.25 4.00798L9.12 4.87798C9.39863 5.15656 9.61965 5.4873 9.77045 5.85131C9.92125 6.21532 9.99886 6.60547 9.99886 6.99948C9.99886 7.39349 9.92125 7.78364 9.77045 8.14765C9.61965 8.51166 9.39863 8.8424 9.12 9.12098C8.5485 9.66668 7.78869 9.97118 6.9985 9.97118C6.20831 9.97118 5.4485 9.66668 4.877 9.12098L4.007 8.24998C4.04264 8.87957 4.22756 9.49164 4.54648 10.0356C4.8654 10.5796 5.30916 11.04 5.84113 11.3786C6.37309 11.7172 6.97799 11.9244 7.60584 11.9831C8.2337 12.0417 8.86651 11.9502 9.452 11.716L10.062 11.476Z" fill="#17138F"/>
			<path d="M29.123 2.85001C28.5515 2.30431 27.7917 1.99982 27.0015 1.99982C26.2113 1.99982 25.4515 2.30431 24.88 2.85001L17.4 10.33L18.814 11.744L26.294 4.26401C26.4845 4.08221 26.7377 3.98077 27.001 3.98077C27.2643 3.98077 27.5175 4.08221 27.708 4.26401C27.895 4.4518 28 4.70601 28 4.97101C28 5.23601 27.895 5.49022 27.708 5.67801L20.228 13.158L21.642 14.573L29.122 7.09301C29.684 6.53 29.9996 5.767 29.9996 4.97151C29.9996 4.17602 29.684 3.41302 29.122 2.85001H29.123Z" fill="#17138F"/>
		</g>
	</symbol>
	<symbol id="close" viewBox="0 0 15 16" fill="none">
		<g>
			<rect x="0.0754395" y="1.28247" width="1" height="20" transform="rotate(-45 0.0754395 1.28247)" fill="white"/>
			<rect x="14.2175" y="0.575378" width="1" height="20" transform="rotate(45 14.2175 0.575378)" fill="white"/>
		</g>
	</symbol>
</svg>