<svg width="26" height="22" viewBox="0 0 26 22" fill="none" xmlns="http://www.w3.org/2000/svg">
<path d="M4 0V7.25C2.652 7.555 1.418 8.133 0.375 8.969L1.625 10.531C2.86546 9.53558 4.40954 8.99524 6 9C9.879 9 13 12.121 13 16H17.563C17.1993 16.6041 17.0048 17.2949 17 18C17 20.2 18.8 22 21 22C23.2 22 25 20.2 25 18C25 16.973 24.582 16.055 23.937 15.344L25.937 10.375L26 10.187V8H21V5C21 4.434 21.434 4 22 4V2C20.355 2 19 3.355 19 5V8H15.687L12.937 0.656L12.687 0H4ZM6 2H11.313L14.063 9.344L14.313 10H23.906L22.313 14H14.75C13.832 10.004 10.27 7 6 7V2ZM6 10C2.7 10 0 12.7 0 16C0 19.3 2.7 22 6 22C9.3 22 12 19.3 12 16C12 12.7 9.3 10 6 10ZM6 12C8.223 12 10 13.777 10 16C10 18.223 8.223 20 6 20C3.777 20 2 18.223 2 16C2 13.777 3.777 12 6 12ZM6 14C5.46957 14 4.96086 14.2107 4.58579 14.5858C4.21071 14.9609 4 15.4696 4 16C4 16.5304 4.21071 17.0391 4.58579 17.4142C4.96086 17.7893 5.46957 18 6 18C6.53043 18 7.03914 17.7893 7.41421 17.4142C7.78929 17.0391 8 16.5304 8 16C8 15.4696 7.78929 14.9609 7.41421 14.5858C7.03914 14.2107 6.53043 14 6 14ZM21 16C22.117 16 23 16.883 23 18C23 19.117 22.117 20 21 20C19.883 20 19 19.117 19 18C19 16.883 19.883 16 21 16Z" fill="#17138F"/>
</svg>
