<svg width="32" height="32" viewBox="0 0 32 32" fill="none" xmlns="http://www.w3.org/2000/svg">
<g clip-path="url(#clip0_5_107)">
<path d="M9.1988 11.0875H10.5032H20.5278V12.5756C20.5278 14.8921 18.6432 16.7766 16.3268 16.7766H16.227C14.2752 16.7766 12.5951 15.4531 12.1414 13.5581C12.0461 13.1607 11.6466 12.9157 11.2492 13.0108C10.8517 13.106 10.6066 13.5053 10.7018 13.9029C11.3157 16.4666 13.5878 18.2569 16.227 18.2569H16.3268C19.4595 18.2569 22.0081 15.7083 22.0081 12.5757V11.0876H22.0506H23.355C23.7637 11.0876 24.0951 10.7562 24.0951 10.3475C24.0951 9.93873 23.7637 9.60736 23.355 9.60736H22.7907V7.74091C22.7907 5.28722 21.4145 3.1492 19.3937 2.0571V0.740106C19.3937 0.33137 19.0623 0 18.6536 0C18.2449 0 17.9135 0.33137 17.9135 0.740106V1.4809C17.408 1.35331 16.8792 1.28482 16.3346 1.28482H16.2192C15.6746 1.28482 15.1458 1.35331 14.6403 1.4809V0.740106C14.6403 0.33137 14.3089 0 13.9002 0C13.4914 0 13.16 0.33137 13.16 0.740106V2.0571C11.1392 3.1491 9.76306 5.28712 9.76306 7.74091V9.60726H9.1988C8.79006 9.60726 8.45869 9.93863 8.45869 10.3474C8.45869 10.7561 8.79006 11.0875 9.1988 11.0875ZM11.2433 7.74091C11.2433 6.15008 11.9946 4.73224 13.16 3.82072V4.11065C13.16 4.51938 13.4914 4.85075 13.9002 4.85075C14.3089 4.85075 14.6403 4.51938 14.6403 4.11065V3.02318C15.1367 2.85661 15.6672 2.76494 16.2192 2.76494H16.3346C16.8864 2.76494 17.417 2.85661 17.9135 3.02318V4.11065C17.9135 4.51938 18.2449 4.85075 18.6536 4.85075C19.0623 4.85075 19.3937 4.51938 19.3937 4.11065V3.82072C20.5592 4.73224 21.3105 6.14998 21.3105 7.74091V9.60726H11.2433V7.74091Z" fill="#17138F"/>
<path d="M23.618 19.4996H23.355H8.645H8.38192C5.22384 19.4996 2.65449 22.0689 2.65449 25.227V31.2599C2.65449 31.6687 2.98586 32.0001 3.3946 32.0001H8.645H23.355H28.6054C29.0141 32.0001 29.3455 31.6687 29.3455 31.2599V25.227C29.3455 22.0689 26.7761 19.4996 23.618 19.4996ZM4.1347 25.227C4.1347 22.8851 6.04003 20.9798 8.38192 20.9798H8.645H10.6818V26.3975C10.6818 26.8062 11.0131 27.1376 11.4219 27.1376H20.5782C20.9869 27.1376 21.3183 26.8062 21.3183 26.3975V22.8747C21.3183 22.4659 20.9869 22.1345 20.5782 22.1345C20.1694 22.1345 19.8381 22.4659 19.8381 22.8747V25.6574H12.162V20.9798H22.6149V30.5197H9.38511V24.4536C9.38511 24.0449 9.05374 23.7135 8.645 23.7135C8.23627 23.7135 7.9049 24.0449 7.9049 24.4536V30.5197H4.1347V25.227ZM27.8653 30.5197H24.0951V21.0063C26.2132 21.2441 27.8653 23.0463 27.8653 25.2269V30.5197Z" fill="#17138F"/>
<path d="M11.4219 29.4H20.5782C20.9869 29.4 21.3183 29.0686 21.3183 28.6599C21.3183 28.2512 20.9869 27.9198 20.5782 27.9198H11.4219C11.0131 27.9198 10.6818 28.2512 10.6818 28.6599C10.6818 29.0686 11.0131 29.4 11.4219 29.4Z" fill="#17138F"/>
</g>
<defs>
<clipPath id="clip0_5_107">
<rect width="32" height="32" fill="white"/>
</clipPath>
</defs>
</svg>
