<svg xmlns="http://www.w3.org/2000/svg">
	<symbol id="phone" viewBox="0 0 20 20">
		<g>
			<path d="M5.51667 8.99167C6.71667 11.35 8.65 13.2833 11.0083 14.4833L12.8417 12.65C13.075 12.4167 13.4 12.35 13.6917 12.4417C14.625 12.75 15.625 12.9167 16.6667 12.9167C16.8877 12.9167 17.0996 13.0045 17.2559 13.1607C17.4122 13.317 17.5 13.529 17.5 13.75V16.6667C17.5 16.8877 17.4122 17.0996 17.2559 17.2559C17.0996 17.4122 16.8877 17.5 16.6667 17.5C12.9094 17.5 9.30609 16.0074 6.64932 13.3507C3.99256 10.6939 2.5 7.09057 2.5 3.33333C2.5 3.11232 2.5878 2.90036 2.74408 2.74408C2.90036 2.5878 3.11232 2.5 3.33333 2.5H6.25C6.47101 2.5 6.68298 2.5878 6.83926 2.74408C6.99554 2.90036 7.08333 3.11232 7.08333 3.33333C7.08333 4.375 7.25 5.375 7.55833 6.30833C7.65 6.6 7.58333 6.925 7.35 7.15833L5.51667 8.99167Z" fill="currentColor"/>
		</g>
	</symbol>
	<symbol id="email" viewBox="0 0 20 20">
		<g>
			<path d="M1.574 5.286L9.074 9.315C9.326 9.45 9.652 9.514 9.98 9.514C10.308 9.514 10.634 9.45 10.886 9.315L18.386 5.286C18.875 5.023 19.337 4 18.44 4H1.521C0.624002 4 1.086 5.023 1.574 5.286ZM18.613 7.489L10.886 11.516C10.546 11.694 10.308 11.715 9.98 11.715C9.652 11.715 9.414 11.694 9.074 11.516C8.734 11.338 1.941 7.777 1.386 7.488C0.996002 7.284 1 7.523 1 7.707V15C1 15.42 1.566 16 2 16H18C18.434 16 19 15.42 19 15V7.708C19 7.524 19.004 7.285 18.613 7.489Z" fill="currentColor"/>
		</g>
	</symbol>
	<symbol id="burger" viewBox="0 0 32 16">
		<g>
			<line y1="1" x2="32" y2="1" stroke="white" stroke-width="2"/>
			<line y1="8" x2="32" y2="8" stroke="white" stroke-width="2"/>
			<line y1="15" x2="32" y2="15" stroke="white" stroke-width="2"/>
		</g>
	</symbol>
	<symbol id="close" viewBox="0 0 15 16" fill="none">
		<g>
			<rect x="0.0754395" y="1.28247" width="1" height="20" transform="rotate(-45 0.0754395 1.28247)" fill="white"/>
			<rect x="14.2175" y="0.575378" width="1" height="20" transform="rotate(45 14.2175 0.575378)" fill="white"/>
		</g>
	</symbol>
</svg>